<svg xmlns="http://www.w3.org/2000/svg" xmlns:xlink="http://www.w3.org/1999/xlink" viewBox="0,0,256,256" width="100px" height="100px" fill-rule="nonzero"><g fill="#fefefe" fill-rule="nonzero" stroke="none" stroke-width="1" stroke-linecap="butt" stroke-linejoin="miter" stroke-miterlimit="10" stroke-dasharray="" stroke-dashoffset="0" font-family="none" font-weight="none" font-size="none" text-anchor="none" style="mix-blend-mode: normal"><g transform="scale(5.12,5.12)"><path d="M37,0c-2.206,0 -4,1.794 -4,4c0,2.206 1.794,4 4,4c2.206,0 4,-1.794 4,-4c0,-2.206 -1.794,-4 -4,-4zM9.5,3c-1.93,0 -3.5,1.57 -3.5,3.5c0,1.93 1.57,3.5 3.5,3.5c1.93,0 3.5,-1.57 3.5,-3.5c0,-1.93 -1.57,-3.5 -3.5,-3.5zM25,6.95313c-7.481,0 -14.28659,4.68802 -16.93359,11.66602c-0.169,0.445 -0.00161,0.94717 0.40039,1.20117c0.402,0.254 0.92686,0.1897 1.25586,-0.1543c3.18,-3.326 9.03434,-5.39258 15.27734,-5.39258c6.243,0 12.09734,2.06658 15.27734,5.39258c0.195,0.204 0.45666,0.30859 0.72266,0.30859c0.185,0 0.3682,-0.0513 0.5332,-0.1543c0.402,-0.254 0.57134,-0.75617 0.40234,-1.20117c-2.648,-6.978 -9.45455,-11.66602 -16.93555,-11.66602zM9.12109,29.98633c-0.22263,-0.0275 -0.4533,0.01899 -0.6543,0.14648c-0.402,0.254 -0.57034,0.75617 -0.40234,1.20117c2.648,6.978 9.45455,11.66602 16.93555,11.66602c7.481,0 14.28759,-4.68802 16.93359,-11.66602c0.169,-0.445 -0.00034,-0.94717 -0.40234,-1.20117c-0.401,-0.254 -0.92686,-0.1917 -1.25586,0.1543c-3.18,3.326 -9.03434,5.39258 -15.27734,5.39258c-6.243,0 -12.09539,-2.06658 -15.27539,-5.39258c-0.1645,-0.1725 -0.37894,-0.27328 -0.60156,-0.30078zM11.5,41c-2.481,0 -4.5,2.018 -4.5,4.5c0,2.482 2.019,4.5 4.5,4.5c2.481,0 4.5,-2.019 4.5,-4.5c0,-2.481 -2.019,-4.5 -4.5,-4.5z"></path></g></g></svg>