<svg xmlns="http://www.w3.org/2000/svg" xmlns:xlink="http://www.w3.org/1999/xlink" viewBox="0,0,256,256" width="100px" height="100px" fill-rule="nonzero"><g fill="#fffafa" fill-rule="nonzero" stroke="none" stroke-width="1" stroke-linecap="butt" stroke-linejoin="miter" stroke-miterlimit="10" stroke-dasharray="" stroke-dashoffset="0" font-family="none" font-weight="none" font-size="none" text-anchor="none" style="mix-blend-mode: normal"><g transform="scale(5.12,5.12)"><path d="M43,9h2v32h-2zM31,16h2v11h-2zM17,16h2v11h-2zM9,43h32v2h-32zM9,5h32v2h-32zM5,9h2v32h-2zM41,9h2v-2h-2zM7,9h2v-2h-2zM41,35v2h-32v-2h-2v6v1v1h1h1h32h1h1v-1v-1v-6z"></path></g></g></svg>